<?xml version="1.0" encoding="UTF-8"?>
<!DOCTYPE svg PUBLIC "-//W3C//DTD SVG 1.1//EN" "http://www.w3.org/Graphics/SVG/1.1/DTD/svg11.dtd">
<!-- Creator: CorelDRAW -->
<svg xmlns="http://www.w3.org/2000/svg" xml:space="preserve" width="35.6015mm" height="20.107mm" version="1.1" style="shape-rendering:geometricPrecision; text-rendering:geometricPrecision; image-rendering:optimizeQuality; fill-rule:evenodd; clip-rule:evenodd"
viewBox="0 0 9564.63 5401.91"
 xmlns:xlink="http://www.w3.org/1999/xlink"
 xmlns:xodm="http://www.corel.com/coreldraw/odm/2003">
 <defs>
  <style type="text/css">
   <![CDATA[
    .str0 {stroke:#0098DB;stroke-width:268.66;stroke-miterlimit:22.9256}
    .str1 {stroke:#0098DB;stroke-width:53.73;stroke-miterlimit:22.9256}
    .fil0 {fill:none}
    .fil2 {fill:#0098DB}
    .fil1 {fill:#0098DB;fill-rule:nonzero}
   ]]>
  </style>
 </defs>
 <g id="Layer_x0020_1">
  <metadata id="CorelCorpID_0Corel-Layer"/>
  <ellipse class="fil0 str0" cx="6863.7" cy="2700.96" rx="2566.61" ry="2566.63"/>
  <g id="_105829242130432">
   <path class="fil1 str1" d="M6781.41 4212.75c274.94,-206.33 1299.79,-1108.89 490.01,-2597.31 -774.19,-1423.03 -534.58,2021.97 -490.01,2597.31zm570.63 -2641.2c968.06,1779.32 -580.68,2760.89 -585.08,2763.77l-64.53 41.91 -6.39 -76.65c-1.1,-13.3 -396.81,-4664.2 656.01,-2729.03z"/>
   <path class="fil1 str1" d="M7043.03 4335.28c-4.41,-2.87 -1553.14,-984.42 -585.08,-2763.77 1052.82,-1935.17 657.11,2715.73 656.01,2729.03l-6.39 76.65 -64.53 -41.91zm-504.46 -2719.87c-809.79,1488.45 215.03,2391 490.01,2597.31 44.57,-575.33 284.19,-4020.33 -490.01,-2597.31z"/>
   <polygon class="fil2 str1" points="6662.83,3826.9 6680.51,4097.04 6775.02,4128.15 6753.9,3813.41 "/>
  </g>
  <ellipse class="fil0 str0" cx="2700.94" cy="2700.96" rx="2566.61" ry="2566.63"/>
  <g id="_105829193953472">
   <path class="fil1 str1" d="M2618.64 4212.75c274.97,-206.33 1299.82,-1108.89 490.03,-2597.31 -774.22,-1423.03 -534.58,2021.97 -490.03,2597.31zm570.66 -2641.2c968.06,1779.32 -580.68,2760.89 -585.08,2763.77l-64.53 41.91 -6.39 -76.65c-1.1,-13.3 -396.83,-4664.2 656.01,-2729.03z"/>
   <path class="fil1 str1" d="M2880.28 4335.28c-4.43,-2.87 -1553.17,-984.42 -585.11,-2763.77 1052.84,-1935.17 657.11,2715.73 656.01,2729.03l-6.39 76.65 -64.5 -41.91zm-504.46 -2719.87c-809.79,1488.45 215.03,2391 490.01,2597.31 44.54,-575.33 284.19,-4020.33 -490.01,-2597.31z"/>
   <polygon class="fil2 str1" points="2500.08,3826.9 2517.76,4097.04 2612.27,4128.15 2591.15,3813.41 "/>
  </g>
 </g>
</svg>
