<?xml version="1.0" encoding="utf-8"?>
<!-- Generator: Adobe Illustrator 25.0.0, SVG Export Plug-In . SVG Version: 6.00 Build 0)  -->
<svg version="1.1" id="Layer_1" xmlns:xodm="http://www.corel.com/coreldraw/odm/2003"
	 xmlns="http://www.w3.org/2000/svg" xmlns:xlink="http://www.w3.org/1999/xlink" x="0px" y="0px" viewBox="0 0 337.2 74.1"
	 style="enable-background:new 0 0 337.2 74.1;" xml:space="preserve">
<style type="text/css">
	.st0{enable-background:new    ;}
	.st1{fill:#3AC0C9;}
	.st2{fill:none;stroke:#0098DB;stroke-width:2.8349;stroke-miterlimit:2.0115;}
	.st3{fill:#0098DB;stroke:#0098DB;stroke-width:0.5668;stroke-miterlimit:2.0115;}
	.st4{fill-rule:evenodd;clip-rule:evenodd;fill:#0098DB;stroke:#0098DB;stroke-width:0.5668;stroke-miterlimit:2.0115;}
</style>
<g id="Layer_x0020_1">
	<g class="st0">
		<path class="st1" d="M129.6,54.1c-6.7,0-12.1-2.3-16.2-7c-4.1-4.6-6.1-10.4-6.1-17.3c0-6.9,2-12.7,6.1-17.3c4.1-4.6,9.5-7,16.2-7
			c5.4,0,9.9,1.4,13.3,4.3c3.5,2.9,5.6,6.8,6.4,11.8H142c-0.5-3.2-1.9-5.6-4-7.4s-4.9-2.7-8.4-2.7c-4.8,0-8.4,1.7-11,5.2
			c-2.6,3.5-3.9,7.8-3.9,13.1c0,5.3,1.3,9.7,3.9,13.1c2.6,3.4,6.3,5.1,11,5.1c3.7,0,6.6-1,8.8-3c2.2-2,3.5-4.8,3.8-8.4h7.2
			c-0.5,5.5-2.4,9.8-5.9,12.9C140,52.5,135.3,54.1,129.6,54.1z"/>
	</g>
	<g class="st0">
		<path class="st1" d="M192.4,53.2c-4.6,0-7.2-2.3-8-6.9h-0.1c-3.8,4.9-8.9,7.3-15.4,7.3c-4.6,0-8.3-1.1-11.3-3.3
			c-2.9-2.2-4.4-5.4-4.4-9.6c0-2.1,0.3-4,1-5.6c0.7-1.6,1.6-2.9,2.6-3.8c1.1-1,2.5-1.8,4.4-2.6c1.9-0.7,3.7-1.3,5.4-1.7
			c1.7-0.4,3.9-0.8,6.6-1.2c1.7-0.2,3-0.4,3.7-0.6c0.7-0.1,1.7-0.4,2.9-0.7c1.2-0.3,2-0.7,2.5-1.1c0.5-0.4,0.9-1,1.3-1.7
			c0.4-0.7,0.6-1.5,0.6-2.5c0-2.6-0.9-4.6-2.7-6c-1.8-1.4-4.4-2.1-7.6-2.1c-7.4,0-11.3,3.4-11.5,10.2h-7c0.1-4.7,1.7-8.5,4.9-11.4
			c3.1-2.9,7.6-4.3,13.5-4.3c11.4,0,17.1,4.9,17.1,14.7v22c0,2,0.3,3.5,1,4.3c0.7,0.8,2,1,3.9,0.6h0.3v5.3
			C195.2,53,193.9,53.2,192.4,53.2z M170.6,48.2c4.5,0,7.9-1.3,10.4-3.9c2.4-2.6,3.7-5.4,3.7-8.5v-7.9c-2.2,1.4-5.7,2.5-10.5,3.4
			c-1.8,0.4-3.2,0.6-4.2,0.8c-1,0.2-2.2,0.6-3.5,1.1c-1.3,0.5-2.3,1.1-2.9,1.7c-0.7,0.6-1.2,1.4-1.7,2.4c-0.5,1-0.7,2.1-0.7,3.4
			C161.1,45.7,164.3,48.2,170.6,48.2z"/>
	</g>
	<g class="st0">
		<path class="st1" d="M201.8,67.6v-61h7.2v6.5h0.2c3.8-5.1,8.7-7.6,14.8-7.6c6,0,10.8,2.2,14.4,6.5c3.6,4.3,5.5,10.3,5.5,17.8
			c0,7.4-1.8,13.4-5.4,17.7s-8.5,6.6-14.7,6.6c-6.2,0-11.1-2.3-14.6-6.8H209v20.3H201.8z M223.2,48.1c4.3,0,7.6-1.7,9.8-5
			c2.3-3.3,3.4-7.7,3.4-13.1c0-5.4-1.1-9.8-3.4-13.2c-2.3-3.4-5.5-5-9.7-5c-4.8,0-8.5,1.7-11,5.1c-2.5,3.4-3.8,7.8-3.8,13.1
			c0,5.4,1.2,9.8,3.6,13.1C214.5,46.4,218.2,48.1,223.2,48.1z"/>
	</g>
	<g class="st0">
		<path class="st1" d="M268,54.1c-6.3,0-11.2-1.4-14.7-4.2c-3.5-2.8-5.4-6.9-5.8-12.1h7.4c0.8,6.9,5.2,10.3,13.2,10.3
			c3.6,0,6.3-0.7,8.1-2.1c1.8-1.4,2.6-3.2,2.6-5.5c0-2.4-0.9-4.2-2.6-5.3c-1.7-1.1-4.9-2.1-9.5-3c-1.9-0.4-3.4-0.8-4.5-1
			c-1.1-0.3-2.4-0.7-4-1.2c-1.6-0.5-2.8-1.1-3.6-1.7c-0.9-0.6-1.7-1.4-2.6-2.3c-0.9-0.9-1.5-2-1.9-3.3c-0.4-1.3-0.6-2.8-0.6-4.4
			c0-3.9,1.4-7,4.3-9.3c2.9-2.3,7-3.4,12.3-3.4c11,0,17,4.8,18.1,14.5h-7.4c-0.4-3-1.4-5.3-3.1-6.7c-1.7-1.4-4.3-2.1-7.8-2.1
			c-3.2,0-5.5,0.6-7,1.8c-1.5,1.2-2.3,2.8-2.3,4.8c0,2.3,0.9,3.9,2.7,4.8c1.8,0.9,5,1.9,9.7,2.8c2.9,0.6,5.1,1.1,6.7,1.7
			c1.6,0.5,3.4,1.3,5.1,2.3c1.8,1,3.1,2.4,3.9,4.2c0.8,1.7,1.3,3.9,1.3,6.4c0,4.5-1.7,8-5,10.4C277.9,52.9,273.5,54.1,268,54.1z"/>
	</g>
	<g class="st0">
		<path class="st1" d="M329.2,53.2c-4.6,0-7.2-2.3-8-6.9h-0.1c-3.8,4.9-8.9,7.3-15.4,7.3c-4.6,0-8.3-1.1-11.3-3.3
			c-2.9-2.2-4.4-5.4-4.4-9.6c0-2.1,0.3-4,1-5.6c0.7-1.6,1.6-2.9,2.6-3.8c1.1-1,2.5-1.8,4.4-2.6c1.9-0.7,3.7-1.3,5.4-1.7
			c1.7-0.4,3.9-0.8,6.6-1.2c1.7-0.2,3-0.4,3.7-0.6c0.7-0.1,1.7-0.4,2.9-0.7c1.2-0.3,2-0.7,2.5-1.1c0.5-0.4,0.9-1,1.3-1.7
			c0.4-0.7,0.6-1.5,0.6-2.5c0-2.6-0.9-4.6-2.7-6c-1.8-1.4-4.4-2.1-7.6-2.1c-7.4,0-11.3,3.4-11.5,10.2h-7c0.1-4.7,1.7-8.5,4.9-11.4
			c3.1-2.9,7.6-4.3,13.5-4.3c11.4,0,17.1,4.9,17.1,14.7v22c0,2,0.3,3.5,1,4.3c0.7,0.8,2,1,3.9,0.6h0.3v5.3
			C332,53,330.7,53.2,329.2,53.2z M307.4,48.2c4.5,0,7.9-1.3,10.4-3.9c2.4-2.6,3.7-5.4,3.7-8.5v-7.9c-2.2,1.4-5.7,2.5-10.5,3.4
			c-1.8,0.4-3.2,0.6-4.2,0.8c-1,0.2-2.2,0.6-3.5,1.1c-1.3,0.5-2.3,1.1-2.9,1.7c-0.7,0.6-1.2,1.4-1.7,2.4c-0.5,1-0.7,2.1-0.7,3.4
			C297.9,45.7,301.1,48.2,307.4,48.2z"/>
	</g>
	<circle class="st2" cx="72.4" cy="28.5" r="27.1"/>
	<g id="_105554567671200">
		<path class="st3" d="M71.6,44.4c2.9-2.2,13.7-11.7,5.2-27.4C68.6,2,71.1,38.4,71.6,44.4z M77.6,16.6c10.2,18.8-6.1,29.1-6.2,29.2
			l-0.7,0.4l-0.1-0.8C70.6,45.2,66.5-3.8,77.6,16.6L77.6,16.6z"/>
		<path class="st3" d="M74.3,45.7c0,0-16.4-10.4-6.2-29.2c11.1-20.4,6.9,28.7,6.9,28.8L75,46.2L74.3,45.7L74.3,45.7z M69,17
			c-8.5,15.7,2.3,25.2,5.2,27.4C74.6,38.4,77.2,2,69,17z"/>
		<polygon class="st4" points="70.3,40.4 70.5,43.2 71.5,43.6 71.3,40.2 		"/>
	</g>
	<g class="st0">
		<path class="st1" d="M255,73.9c-0.8,0-1.5-0.2-2-0.5c-0.5-0.3-0.7-0.8-0.8-1.3h0.9c0.1,0.7,0.7,1,1.8,1c1.2,0,1.9-0.6,1.9-1.7
			v-0.9h0c-0.3,0.3-0.5,0.6-0.8,0.8c-0.3,0.2-0.7,0.3-1.1,0.3c-0.8,0-1.5-0.3-2-0.9c-0.5-0.6-0.8-1.4-0.8-2.3c0-1,0.3-1.8,0.8-2.3
			s1.2-0.9,2-0.9c0.9,0,1.5,0.3,2,1h0v-0.8h1v6.1c0,0.8-0.3,1.5-0.8,1.9C256.6,73.6,255.9,73.9,255,73.9z M254.9,70.6
			c1.3,0,2-0.8,2-2.4c0-1.5-0.7-2.3-2-2.3c-0.6,0-1,0.2-1.4,0.6c-0.3,0.4-0.5,1-0.5,1.7c0,0.7,0.2,1.3,0.5,1.7
			C253.9,70.4,254.3,70.6,254.9,70.6z"/>
		<path class="st1" d="M262,71.9c-1,0-1.7-0.3-2.3-1s-0.8-1.5-0.8-2.4c0-1,0.3-1.8,0.9-2.4c0.6-0.7,1.3-1,2.2-1c1,0,1.7,0.3,2.2,1
			s0.8,1.6,0.8,2.7h-5c0,0.7,0.2,1.2,0.6,1.7s0.9,0.6,1.5,0.6c1,0,1.6-0.4,1.8-1.3h1c-0.2,0.7-0.5,1.2-1,1.6
			C263.4,71.7,262.8,71.9,262,71.9z M263.3,66.4c-0.3-0.4-0.8-0.6-1.4-0.6s-1,0.2-1.4,0.6c-0.3,0.4-0.6,0.9-0.6,1.5h3.9
			C263.8,67.3,263.6,66.8,263.3,66.4z"/>
		<path class="st1" d="M265.4,66v-0.8h0.9v-2h1v2h1.3V66h-1.3v4.2c0,0.4,0.2,0.6,0.7,0.6c0.2,0,0.4,0,0.5-0.1h0v0.9
			c-0.3,0.1-0.5,0.1-0.8,0.1c-1,0-1.4-0.4-1.4-1.3V66H265.4z"/>
		<path class="st1" d="M272.4,71.9c-0.9,0-1.7-0.3-2.3-1c-0.6-0.7-0.9-1.5-0.9-2.4c0-1,0.3-1.8,0.9-2.4s1.3-1,2.3-1
			c0.8,0,1.4,0.2,1.9,0.6c0.5,0.4,0.8,1,0.9,1.7h-1c-0.1-0.4-0.3-0.8-0.6-1c-0.3-0.3-0.7-0.4-1.2-0.4c-0.7,0-1.2,0.2-1.6,0.7
			c-0.4,0.5-0.5,1.1-0.5,1.8s0.2,1.4,0.5,1.8c0.4,0.5,0.9,0.7,1.6,0.7c0.5,0,0.9-0.1,1.2-0.4s0.5-0.7,0.5-1.2h1
			c-0.1,0.8-0.3,1.4-0.8,1.8C273.8,71.7,273.2,71.9,272.4,71.9z"/>
		<path class="st1" d="M281.4,71.8c-0.6,0-1-0.3-1.1-1h0c-0.5,0.7-1.3,1-2.2,1c-0.6,0-1.2-0.2-1.6-0.5c-0.4-0.3-0.6-0.8-0.6-1.3
			c0-0.3,0-0.6,0.1-0.8c0.1-0.2,0.2-0.4,0.4-0.5c0.2-0.1,0.4-0.3,0.6-0.4c0.3-0.1,0.5-0.2,0.8-0.2s0.6-0.1,0.9-0.2
			c0.2,0,0.4-0.1,0.5-0.1c0.1,0,0.2-0.1,0.4-0.1c0.2,0,0.3-0.1,0.4-0.2s0.1-0.1,0.2-0.2c0.1-0.1,0.1-0.2,0.1-0.4
			c0-0.4-0.1-0.7-0.4-0.8c-0.3-0.2-0.6-0.3-1.1-0.3c-1,0-1.6,0.5-1.6,1.4h-1c0-0.7,0.2-1.2,0.7-1.6c0.4-0.4,1.1-0.6,1.9-0.6
			c1.6,0,2.4,0.7,2.4,2.1v3.1c0,0.3,0,0.5,0.1,0.6c0.1,0.1,0.3,0.1,0.5,0.1h0v0.7C281.7,71.7,281.6,71.8,281.4,71.8z M278.3,71
			c0.6,0,1.1-0.2,1.5-0.5c0.3-0.4,0.5-0.8,0.5-1.2v-1.1c-0.3,0.2-0.8,0.4-1.5,0.5c-0.3,0.1-0.4,0.1-0.6,0.1c-0.1,0-0.3,0.1-0.5,0.2
			c-0.2,0.1-0.3,0.1-0.4,0.2c-0.1,0.1-0.2,0.2-0.2,0.3c-0.1,0.1-0.1,0.3-0.1,0.5C277,70.7,277.4,71,278.3,71z"/>
		<path class="st1" d="M282.7,73.8v-8.6h1v0.9h0c0.5-0.7,1.2-1.1,2.1-1.1c0.8,0,1.5,0.3,2,0.9c0.5,0.6,0.8,1.4,0.8,2.5
			c0,1-0.3,1.9-0.8,2.5s-1.2,0.9-2.1,0.9c-0.9,0-1.6-0.3-2-1h0v2.9H282.7z M285.7,71c0.6,0,1.1-0.2,1.4-0.7c0.3-0.5,0.5-1.1,0.5-1.8
			c0-0.8-0.2-1.4-0.5-1.9s-0.8-0.7-1.4-0.7c-0.7,0-1.2,0.2-1.5,0.7c-0.4,0.5-0.5,1.1-0.5,1.8c0,0.8,0.2,1.4,0.5,1.8
			C284.5,70.8,285,71,285.7,71z"/>
		<path class="st1" d="M292.1,71.9c-0.9,0-1.6-0.2-2.1-0.6s-0.8-1-0.8-1.7h1c0.1,1,0.7,1.4,1.9,1.4c0.5,0,0.9-0.1,1.1-0.3
			c0.2-0.2,0.4-0.5,0.4-0.8c0-0.3-0.1-0.6-0.4-0.7c-0.2-0.2-0.7-0.3-1.3-0.4c-0.3-0.1-0.5-0.1-0.6-0.1s-0.3-0.1-0.6-0.2
			s-0.4-0.2-0.5-0.2c-0.1-0.1-0.2-0.2-0.4-0.3c-0.1-0.1-0.2-0.3-0.3-0.5c-0.1-0.2-0.1-0.4-0.1-0.6c0-0.6,0.2-1,0.6-1.3
			s1-0.5,1.7-0.5c1.5,0,2.4,0.7,2.6,2h-1c0-0.4-0.2-0.7-0.4-0.9c-0.2-0.2-0.6-0.3-1.1-0.3c-0.4,0-0.8,0.1-1,0.3s-0.3,0.4-0.3,0.7
			c0,0.3,0.1,0.5,0.4,0.7c0.3,0.1,0.7,0.3,1.4,0.4c0.4,0.1,0.7,0.2,0.9,0.2s0.5,0.2,0.7,0.3c0.3,0.1,0.4,0.3,0.6,0.6
			s0.2,0.5,0.2,0.9c0,0.6-0.2,1.1-0.7,1.5C293.5,71.7,292.8,71.9,292.1,71.9z"/>
		<path class="st1" d="M300.8,71.8c-0.6,0-1-0.3-1.1-1h0c-0.5,0.7-1.3,1-2.2,1c-0.6,0-1.2-0.2-1.6-0.5c-0.4-0.3-0.6-0.8-0.6-1.3
			c0-0.3,0-0.6,0.1-0.8c0.1-0.2,0.2-0.4,0.4-0.5c0.2-0.1,0.4-0.3,0.6-0.4c0.3-0.1,0.5-0.2,0.8-0.2s0.6-0.1,0.9-0.2
			c0.2,0,0.4-0.1,0.5-0.1c0.1,0,0.2-0.1,0.4-0.1c0.2,0,0.3-0.1,0.4-0.2s0.1-0.1,0.2-0.2c0.1-0.1,0.1-0.2,0.1-0.4
			c0-0.4-0.1-0.7-0.4-0.8c-0.3-0.2-0.6-0.3-1.1-0.3c-1,0-1.6,0.5-1.6,1.4h-1c0-0.7,0.2-1.2,0.7-1.6c0.4-0.4,1.1-0.6,1.9-0.6
			c1.6,0,2.4,0.7,2.4,2.1v3.1c0,0.3,0,0.5,0.1,0.6c0.1,0.1,0.3,0.1,0.5,0.1h0v0.7C301.2,71.7,301,71.8,300.8,71.8z M297.7,71
			c0.6,0,1.1-0.2,1.5-0.5c0.3-0.4,0.5-0.8,0.5-1.2v-1.1c-0.3,0.2-0.8,0.4-1.5,0.5c-0.3,0.1-0.4,0.1-0.6,0.1c-0.1,0-0.3,0.1-0.5,0.2
			c-0.2,0.1-0.3,0.1-0.4,0.2c-0.1,0.1-0.2,0.2-0.2,0.3c-0.1,0.1-0.1,0.3-0.1,0.5C296.4,70.7,296.8,71,297.7,71z"/>
		<path class="st1" d="M302.1,71.7v-1.2h1.2v1.2H302.1z"/>
		<path class="st1" d="M307.1,71.9c-0.9,0-1.7-0.3-2.3-1c-0.6-0.7-0.9-1.5-0.9-2.4c0-1,0.3-1.8,0.9-2.4s1.3-1,2.3-1
			c0.8,0,1.4,0.2,1.9,0.6c0.5,0.4,0.8,1,0.9,1.7h-1c-0.1-0.4-0.3-0.8-0.6-1c-0.3-0.3-0.7-0.4-1.2-0.4c-0.7,0-1.2,0.2-1.6,0.7
			c-0.4,0.5-0.5,1.1-0.5,1.8s0.2,1.4,0.5,1.8c0.4,0.5,0.9,0.7,1.6,0.7c0.5,0,0.9-0.1,1.2-0.4s0.5-0.7,0.5-1.2h1
			c-0.1,0.8-0.3,1.4-0.8,1.8C308.5,71.7,307.9,71.9,307.1,71.9z"/>
		<path class="st1" d="M315.9,70.9c-0.6,0.7-1.3,1-2.3,1c-0.9,0-1.7-0.3-2.3-1c-0.6-0.7-0.9-1.5-0.9-2.4c0-1,0.3-1.8,0.9-2.4
			s1.3-1,2.3-1c0.9,0,1.7,0.3,2.3,1c0.6,0.7,0.9,1.5,0.9,2.4C316.7,69.4,316.4,70.2,315.9,70.9z M312,70.3c0.4,0.5,0.9,0.7,1.6,0.7
			c0.7,0,1.2-0.2,1.5-0.7s0.5-1.1,0.5-1.8c0-0.8-0.2-1.4-0.5-1.9c-0.4-0.5-0.9-0.7-1.5-0.7c-0.7,0-1.2,0.2-1.6,0.7
			c-0.4,0.5-0.5,1.1-0.5,1.8S311.7,69.8,312,70.3z"/>
		<path class="st1" d="M317.7,71.7v-6.5h1v0.9h0c0.2-0.3,0.5-0.6,0.8-0.8c0.3-0.2,0.7-0.3,1.1-0.3c0.8,0,1.4,0.4,1.7,1.2h0
			c0.2-0.4,0.5-0.6,0.8-0.8c0.4-0.2,0.7-0.3,1.1-0.3c0.6,0,1.1,0.2,1.4,0.5c0.4,0.4,0.5,0.9,0.5,1.5v4.6h-1v-4.5
			c0-0.4-0.1-0.7-0.3-0.9s-0.5-0.3-0.8-0.3c-0.4,0-0.8,0.2-1.1,0.5s-0.5,0.8-0.5,1.2v4h-1v-4.5c0-0.4-0.1-0.7-0.3-0.9
			s-0.5-0.3-0.8-0.3c-0.4,0-0.8,0.2-1.2,0.5c-0.3,0.3-0.5,0.8-0.5,1.2v4H317.7z"/>
	</g>
	<circle class="st2" cx="28.5" cy="28.5" r="27.1"/>
	<g id="_105554467081888">
		<path class="st3" d="M27.6,44.4c2.9-2.2,13.7-11.7,5.2-27.4C24.6,2,27.2,38.4,27.6,44.4z M33.6,16.6c10.2,18.8-6.1,29.1-6.2,29.2
			l-0.7,0.4l-0.1-0.8C26.7,45.2,22.5-3.8,33.6,16.6L33.6,16.6z"/>
		<path class="st3" d="M30.4,45.7c0,0-16.4-10.4-6.2-29.2c11.1-20.4,6.9,28.7,6.9,28.8l-0.1,0.8L30.4,45.7L30.4,45.7z M25.1,17
			c-8.5,15.7,2.3,25.2,5.2,27.4C30.7,38.4,33.2,2,25.1,17z"/>
		<polygon class="st4" points="26.4,40.4 26.6,43.2 27.6,43.6 27.3,40.2 		"/>
	</g>
</g>
</svg>
